<svg id="Layer_1" data-name="Layer 1" xmlns="http://www.w3.org/2000/svg" viewBox="0 0 512 512"><defs><style>.cls-1{fill:#ffefd6;}.cls-2{fill:#e2a379;}.cls-3{fill:#333;}.cls-4{fill:#b3233b;}.cls-5{fill:#f4b382;}.cls-6{fill:#d6876b;}.cls-7{fill:#cc785e;}.cls-8{fill:#602f0f;}.cls-9{fill:#4c230c;}.cls-10{fill:#3d3c3c;}</style></defs><title>warrior 3 pose</title><path class="cls-1" d="M7.92,256C7.92,119,119,7.92,256,7.92S504.08,119,504.08,256,393,504.08,256,504.08,7.92,393,7.92,256Z"/><path class="cls-2" d="M446.72,222.24c-34.37-5.07-51.16-3.5-51.16-3.5-20.42-4-58.85-6.11-66.75-5.39s-8.22,16.71-.34,18,14.94,1.45,22.8,2.05,36.18-1.67,43.12-1.83l51.57-.81Z"/><path class="cls-2" d="M446.72,222.24a13.34,13.34,0,0,1,7.39-1.85,12.69,12.69,0,0,1,6.35,2.15L471,224.37l.65,1.42-10.58.87c-1.7,2.27-4,6.58-7.1,6.72-2.5.11-8-2.64-8-2.64Z"/><path class="cls-3" d="M158.83,215.29c-11.22-2.79-22.37-2.7-32.29-3.57.84,3.38-.39,16.89-1.64,19.76,3.53.67,31,5.45,31,5.45,8.58,2.12,59.61,11.88,75.82,11.5a71,71,0,0,0,11-.7c6-.86-.19-36.6-.19-36.48-4.71-1.92-12.43-2.79-19.24-2.22-10.5.88-16.58,4.36-18.12,4.5-12.09,1.1-18.45,2-22.63,2.08C174.38,215.73,158.83,215.29,158.83,215.29Z"/><path class="cls-2" d="M40.51,211.71c1.44-3.87,18.53-.23,21.55-1.15,1.5-.45,3.16-2.46,6.63-2.17,4.56.37,6.69,4.28,8.32,4.33,8.35.28,31.72-2,41.8-1.53q3.5.16,7.16.52c9.9,1,2.77,20.55-.76,19.84-14.17-2.82-49.09-8.3-54.08-9.9,0,0-15.8-2.21-19.47-3.1C49.45,218,39.08,215.57,40.51,211.71Z"/><path class="cls-4" d="M315,251.5c12.26.68,16-6.77,29.76-12,1.72-.66,6.94-7.75,7.44-11.68.56-4.38.36-8.95-2.89-12.68-2.5-2.88-21.31-6.79-34-6.12s-26.82,3.54-45.33,4.33a107.72,107.72,0,0,1-27.51-2.08L244,249.33c30.33.67,45.8-3.62,58-2.74C302,246.6,309,251.17,315,251.5Z"/><path class="cls-2" d="M350.36,236.93s9.15-2.24,17.32-3.38L370,220.32c-8.19,1.79-18.72-1.25-18.72-1.25,0,12.57-4.83,17.3-6.52,20.41Z"/><path class="cls-5" d="M386.32,238.53c6,2.09,10.21-1.77,12.46-4.35,7-8,6-14,3.62-21.27-3.15-9.66-29.79-5-33.8-2.77-10.43,5.83-9.76,22.65-7.89,29,2.07,7,3.89,4.47,6.58,3.36a2,2,0,0,1,.62.17,7.9,7.9,0,0,1,3.71-.56,9.34,9.34,0,0,1,1.23-.71c.3-.12.5-.16.74.15a7.74,7.74,0,0,0,1.86,2C377.2,244.4,383.53,237.56,386.32,238.53Z"/><path class="cls-6" d="M369.08,238.38s-.19.8.82,4a1,1,0,0,0,1.63,0C372,241.71,370.08,240.53,369.08,238.38Z"/><path class="cls-7" d="M369.08,238.38s-1.4,1.15-1.16,4.31a1.14,1.14,0,0,0,.82.61,1.05,1.05,0,0,0,1.16-1C368.89,239.18,369.08,238.38,369.08,238.38Z"/><path class="cls-8" d="M403.8,211.71c-3.85-11.79-26-21.94-40.71.65-1,1.5-1.77,4.49,2.17,7.25a23.21,23.21,0,0,0,5.94,2.89c.95.27,2,.54,3.08.83s6.78-2.34,7.36-1.21c5.59,11,13.31,13.88,16.41,12.87C405,231.18,407.91,224.28,403.8,211.71Z"/><path class="cls-5" d="M373.95,219.41c-4.66,3.46-4.19,5.72-2.9,8.75l7.55-4.4,2.74-2.65C380.05,218.09,378.6,215.94,373.95,219.41Z"/><path class="cls-9" d="M379.87,199.12c1.46-3.52,7.56-4.1,13.63-1.3s9.82,7.92,8.37,11.43-6.28,3.31-12.35.51S378.41,202.63,379.87,199.12Z"/><path class="cls-8" d="M380.78,223.71a13,13,0,0,1,2.46-1,10.77,10.77,0,0,1,1.7-.36l-2.34-3-1.52.49s.23.33.66.91l-.06-.08a18,18,0,0,1-3.16,2.83S378,225.16,380.78,223.71Z"/><path class="cls-8" d="M379.56,197.07c1.53-3.71,8.17-4.23,14.82-1.16s10.8,8.55,9.27,12.27-6.79,3.41-13.44.34S378,200.78,379.56,197.07Z"/><path class="cls-9" d="M390.66,195.6c.17-.41,2,0,4,1s3.54,2,3.37,2.44-1.63,0-3.66-1S390.49,196,390.66,195.6Z"/><path class="cls-5" d="M446.57,218.37c-34.54-3.77-51.26-1.56-51.26-1.56-20.55-3.19-59-3.88-66.9-2.86s-7.58,17,.34,18,15,.88,22.86,1.19,36.09-3,43-3.46l51.5-2.76Z"/><path class="cls-5" d="M446.57,218.37a13.34,13.34,0,0,1,7.31-2.13,12.7,12.7,0,0,1,6.43,1.91l10.57,1.42.7,1.4L461,222.24c-1.62,2.33-3.72,6.72-6.84,7-2.49.21-8.09-2.34-8.09-2.34Z"/><path class="cls-10" d="M242.49,211.25c-18.94-3.68-27.41-.88-32.43,6.65,0,0-4.51,7.4-5.06,14.18a28.63,28.63,0,0,0,7.46,22.19s31.23,13.12,31.65,5.88c.35-5.93.75-11.32,1.13-16.07C245.71,238.52,242.49,211.25,242.49,211.25Z"/><path class="cls-5" d="M239,413.93c-4-.93-15.93,0-17.43-.1-3.63-.14-7.14-2.1-6.43-5.51.54-2.59,1.79-4.91,1.63-6.53-.79-8.32-.29-33.18-1.11-43.24q-.29-3.48-.4-7.17c-.31-9.95,20.08-4.3,19.84-.71-1,14.41-7.63,48.41-8.57,53.56,0,0,19.29,1.2,18.88,4.95C245.2,411.47,243.06,414.86,239,413.93Z"/><path class="cls-10" d="M217,319a209.46,209.46,0,0,0-1.73,32.37c3.25-1.23,16.82-1.61,19.82-.7.25-3.59,3.75-31.3,3.75-31.3,1.09-8.77,8.17-60.41,5.88-76.45a71.11,71.11,0,0,0-2-10.83c-1.56-5.85-34.12-2.51-35.36,5.57,1.13,17.64,9.53,49.92,10.57,58S217,319,217,319Z"/></svg>