<svg id="Layer_1" data-name="Layer 1" xmlns="http://www.w3.org/2000/svg" viewBox="0 0 512 512"><defs><style>.cls-1{fill:#ffefd6;}.cls-2{fill:#e2a379;}.cls-3{fill:#333;}.cls-4{fill:#f4b382;}.cls-5{fill:#3d3c3c;}.cls-6{fill:#b3233b;}.cls-7{fill:#d6876b;}.cls-8{fill:#cc785e;}.cls-9{fill:#602f0f;}.cls-10{fill:#4c230c;}</style></defs><title>cresent lunge pose</title><path class="cls-1" d="M7.92,256C7.92,119,119,7.92,256,7.92S504.08,119,504.08,256,393,504.08,256,504.08,7.92,393,7.92,256Z"/><path class="cls-2" d="M386.47,379.76c-4.12-.23-20.3.1-21.79.3-3.6.48-7.39-.85-7.28-4.34.09-2.65.93-5.14.5-6.71-2.19-8.06-9.69-35.72-12.21-45.5-.85-3.3,19.46-7.42,19.83-3.83C367,334,368,364.53,367.93,369.77c0,0,21.36.89,21.59,4.66C389.67,376.72,390.59,380,386.47,379.76Z"/><path class="cls-3" d="M339.85,302.89c1.34,5.62,1.55,9.74,5.84,20.62,3.15-1.48,16.77-4.51,19.83-3.83-.67-5.83-3.62-33-11.17-40.83-7.86-8.15-80.52,10.9-82.23,8.28,0,0-36.37,24.65-21.28,34.77C269.47,334.37,339.85,302.89,339.85,302.89Z"/><path class="cls-4" d="M88.29,377.33c.37-4.11,17.82-5.07,20.5-6.75,1.33-.83,2.41-3.2,5.83-3.83,4.5-.83,7.58,2.37,9.17,2,8.13-1.92,30.6-4.64,40.45-6.83q3.41-.76,7-1.37c9.81-1.66,7,19.31,3.4,19.56-14.41,1-49-1-54.23-1.2,0,0-15.83,2-19.6,2.11C98.57,381.08,87.92,381.44,88.29,377.33Z"/><path class="cls-5" d="M203.06,358a209.26,209.26,0,0,0-32.3,2.7c1.67,3.05,3.89,16.45,3.4,19.54,3.59-.25,31.52-.55,31.52-.55,7.81-.1,55.52-46.71,75-70a74.17,74.17,0,0,0,6.4-10.6S256,280.13,252.53,280.93a28.55,28.55,0,0,0-13.83,16.42c-1.26,4.06-1,11.54-2.42,13.58C223.28,329.43,203.06,358,203.06,358Z"/><path class="cls-2" d="M258.89,75.95c-3.75,0-1.83,15.83-2.83,20.58l2.58,5.67c-2.33,34.67,3.92,49.83,3.92,49.83-2.33,20.67-4.78,60.59-3.44,68.41s17.31,6.87,17.94-1.08.26-15,.24-22.89-1.18-37.38-1.89-44.28c-.1-.95-8.24-49.89-8.24-49.89a19.68,19.68,0,0,1,1.22-5.35c1.6-4.58,1.25-11.5-.5-15.25A10.45,10.45,0,0,0,258.89,75.95Z"/><path class="cls-2" d="M257.65,91.72s.43-5-2.21-5.5c-2.21-.42-3-.33.63,10.33C256.07,96.55,257.57,96.38,257.65,91.72Z"/><path class="cls-6" d="M294.67,225.21c.42-12.27-9.83-15.41-16.5-28.5-.84-1.64-8.44-6.08-12.4-6.17-4.41-.09-8.94.58-12.31,4.21-2.6,2.79-7.8,11.46-3.55,34.46,1,8.92,8.82,45.62,1.94,52,0,0,12.23,9.32,20.23,11.32a66.05,66.05,0,0,1,15.33,6.33c8.44-19.65,1-52.41,2.83-64.67C290.26,234.21,294.55,228.69,294.67,225.21Z"/><path class="cls-2" d="M274.72,191.61s-3.19-8.86-5.19-16.86l-13.4-.92c2.64,8,.74,18.75.74,18.75,12.5-1.33,17.71,3,21,4.33Z"/><path class="cls-4" d="M265.18,146.84c-1.31-6.24-6.77-7.84-10.14-8.44-10.45-1.86-15.07,2-20.1,7.84-6.66,7.67,11,28.12,15,30.41,10.37,5.95,24.45-3.28,28.94-8.17,4.94-5.37,1.83-5.63-.5-7.37-.09-.07-.17-.62-.17-.62a7.92,7.92,0,0,1-2.39-2.9,9.44,9.44,0,0,1-1.24-.69c-.26-.19-.39-.35-.25-.71a7.71,7.71,0,0,0,.75-2.62C274.9,151.65,265.79,149.74,265.18,146.84Z"/><path class="cls-7" d="M273.92,161.71s.78-.25,3-2.74c.13-.43.26-1.25-.83-1.4C275.26,157.46,275.25,159.74,273.92,161.71Z"/><path class="cls-8" d="M273.92,161.71s1.71.61,4.29-1.22a1.14,1.14,0,0,0,.1-1,1.06,1.06,0,0,0-1.42-.49C274.7,161.46,273.92,161.71,273.92,161.71Z"/><path class="cls-9" d="M233.19,145.66c-8.12,9.37-5.46,33.54,21.51,34.57,1.8.07,4.76-.79,5.1-5.59a23.25,23.25,0,0,0-.58-6.58c-.26-.95-.55-2-.88-3.07s-5.5-4.6-4.82-5.69c6.52-10.44,5-18.56,2.59-20.69C249.28,134.63,241.85,135.67,233.19,145.66Z"/><path class="cls-4" d="M255.15,167.3c5.37,2.21,7.06.64,9-2l-7.66-4.21-3.68-1C250.88,162.74,249.79,165.09,255.15,167.3Z"/><path class="cls-10" d="M234.71,172.66c-3.76.56-7.4-4.37-8.13-11s1.74-12.5,5.5-13.06,6.07,3.68,6.79,10.33S238.47,172.11,234.71,172.66Z"/><path class="cls-9" d="M255.33,159.22a13.09,13.09,0,0,1-2.1-1.61,10.59,10.59,0,0,1-1.18-1.27l-1.38,3.57,1.2,1.05s.16-.37.44-1l0,.09a18.24,18.24,0,0,1,4,1.25S258,160.86,255.33,159.22Z"/><path class="cls-9" d="M233.11,174c-4,.59-7.83-4.83-8.62-12.11s1.78-13.66,5.75-14.26,6.42,4.07,7.21,11.35S237.08,173.39,233.11,174Z"/><path class="cls-10" d="M226.13,165.22c-.44.07-1-1.68-1.24-3.91s-.08-4.08.36-4.15.82,1.41,1.06,3.64S226.58,165.15,226.13,165.22Z"/><path class="cls-4" d="M253.39,70.95c-3.75,0-1.83,15.83-2.83,20.58l2.58,5.67c-2.33,34.67,3.92,49.83,3.92,49.83-2.33,20.67-4.78,60.59-3.44,68.41s17.31,6.87,17.94-1.08.26-15,.24-22.89-1.18-37.38-1.89-44.28c-.1-.95-8.24-49.89-8.24-49.89a19.68,19.68,0,0,1,1.22-5.35c1.6-4.58,1.25-11.5-.5-15.25A10.45,10.45,0,0,0,253.39,70.95Z"/><path class="cls-4" d="M252.15,86.72s.43-5-2.21-5.5c-2.21-.42-3-.33.63,10.33C250.57,91.55,252.07,91.38,252.15,86.72Z"/></svg>