<?xml version="1.0" encoding="iso-8859-1"?>
<!-- Generator: Adobe Illustrator 22.0.1, SVG Export Plug-In . SVG Version: 6.00 Build 0)  -->
<svg version="1.1" id="Icons" xmlns="http://www.w3.org/2000/svg" xmlns:xlink="http://www.w3.org/1999/xlink" x="0px" y="0px"
	 viewBox="0 0 512 512" style="enable-background:new 0 0 512 512;" xml:space="preserve">
<g>
	<path id="XMLID_1930_" style="fill:#FB80A5;" d="M512,255.904c0,70.692-28.654,134.692-74.981,181.019S326.692,511.904,256,511.904
		S121.308,483.25,74.981,436.924S0,326.597,0,255.904S28.654,121.212,74.981,74.885S185.308-0.096,256-0.096
		s134.692,28.654,181.019,74.981S512,185.212,512,255.904z"/>
	<g id="XMLID_1931_">
		<path id="XMLID_2211_" style="fill:#F78FB5;" d="M168.312,206.876c0,16.18,6.558,30.829,17.162,41.432
			c10.603,10.603,25.252,17.162,41.432,17.162s30.829-6.558,41.432-17.162c10.603-10.603,17.162-25.252,17.162-41.432
			s-6.558-30.829-17.162-41.432c-10.603-10.603-25.252-17.162-41.432-17.162s-30.829,6.558-41.432,17.162
			C174.87,176.047,168.312,190.696,168.312,206.876z"/>
		<path id="XMLID_2210_" style="fill:#F78FB5;" d="M336.748,154.664c0,10.265,4.161,19.558,10.887,26.284
			c6.727,6.727,16.02,10.887,26.284,10.887c10.265,0,19.558-4.161,26.284-10.887s10.887-16.02,10.887-26.284
			s-4.161-19.558-10.887-26.284s-16.02-10.887-26.284-10.887c-10.265,0-19.558,4.161-26.284,10.887
			C340.909,135.107,336.748,144.4,336.748,154.664z"/>
		<path id="XMLID_2209_" style="fill:#F78FB5;" d="M234.126,63.202c0,10.265,4.161,19.558,10.887,26.284
			c6.727,6.727,16.02,10.887,26.284,10.887c10.265,0,19.558-4.161,26.284-10.887c6.727-6.727,10.887-16.02,10.887-26.284
			s-4.161-19.558-10.887-26.284c-6.727-6.727-16.02-10.887-26.284-10.887c-10.265,0-19.558,4.161-26.284,10.887
			S234.126,52.937,234.126,63.202z"/>
		<g id="XMLID_1932_">
			<g id="XMLID_2202_">
				<path id="XMLID_2208_" style="fill:#159F6E;" d="M245.434,306.947c-3.301,10.485-9.769,19.224-16.841,26.181
					c-7.072,6.957-14.748,12.132-20.464,15.487c-1.212,0.71-2.511,1.121-3.816,1.258c-1.304,0.137-2.613-0.001-3.843-0.388
					c-1.23-0.387-2.382-1.024-3.372-1.884s-1.82-1.941-2.407-3.217c-2.764-6.025-6.091-14.663-7.902-24.417
					s-2.106-20.622,1.195-31.107c4.809-15.274,16.345-26.846,26.678-34.598c10.334-7.752,19.465-11.686,19.465-11.686
					s5.231,8.456,9.26,20.73C247.415,275.58,250.242,291.673,245.434,306.947z"/>
				<path id="XMLID_2203_" style="fill:#0A8A5D;" d="M234.126,242.576l-16.829,53.454l-16.829,53.454
					c-1.23-0.387-2.382-1.024-3.372-1.884s-1.82-1.941-2.407-3.217c-2.764-6.025-6.091-14.663-7.902-24.417
					s-2.106-20.622,1.195-31.107c4.809-15.274,16.345-26.846,26.678-34.598C224.995,246.51,234.126,242.576,234.126,242.576z"/>
			</g>
			<g id="XMLID_2198_">
				<path id="XMLID_2201_" style="fill:#159F6E;" d="M488.619,324.81c-4.961,7.467-12.008,12.85-19.124,16.699
					c-7.117,3.849-14.303,6.165-19.541,7.499c-1.11,0.282-2.222,0.309-3.274,0.121s-2.047-0.592-2.923-1.174
					c-0.876-0.582-1.634-1.342-2.216-2.24c-0.582-0.898-0.987-1.933-1.157-3.065c-0.801-5.346-1.451-12.868-0.661-20.92
					c0.79-8.052,3.021-16.635,7.981-24.102c7.227-10.878,18.886-17.332,28.738-21.065c9.852-3.734,17.898-4.748,17.898-4.748
					s2.184,7.81,2.56,18.339C497.276,300.683,495.846,313.931,488.619,324.81z"/>
				<path id="XMLID_2199_" style="fill:#0A8A5D;" d="M494.339,271.814l-25.292,38.07l-25.292,38.07
					c-0.876-0.582-1.634-1.342-2.216-2.24c-0.582-0.898-0.987-1.933-1.157-3.065c-0.801-5.346-1.451-12.868-0.661-20.92
					c0.79-8.052,3.021-16.635,7.981-24.102c7.227-10.878,18.886-17.332,28.738-21.065
					C486.293,272.828,494.339,271.814,494.339,271.814z"/>
			</g>
			<g id="XMLID_2195_">
				<path id="XMLID_2197_" style="fill:#159F6E;" d="M61.928,302.631c3.326,8.325,3.75,17.183,2.874,25.226
					c-0.876,8.043-3.054,15.272-4.933,20.341c-0.399,1.074-1.008,2.004-1.761,2.763s-1.651,1.348-2.628,1.738
					c-0.977,0.39-2.033,0.582-3.102,0.551c-1.069-0.031-2.151-0.286-3.18-0.789c-4.854-2.379-11.413-6.118-17.59-11.343
					c-6.177-5.226-11.972-11.938-15.297-20.263c-4.845-12.128-3.53-25.389-1.004-35.618c2.526-10.229,6.263-17.425,6.263-17.425
					s7.667,2.641,16.545,8.314S57.083,290.502,61.928,302.631z"/>
				<path id="XMLID_2196_" style="fill:#0A8A5D;" d="M21.57,267.81l16.955,42.444l16.955,42.444
					c-0.977,0.39-2.033,0.582-3.102,0.551c-1.069-0.031-2.151-0.286-3.18-0.789c-4.854-2.379-11.413-6.118-17.59-11.343
					c-6.177-5.226-11.972-11.938-15.297-20.263c-4.845-12.128-3.53-25.389-1.004-35.618C17.833,275.007,21.57,267.81,21.57,267.81z"
					/>
			</g>
			<path id="XMLID_2397_" style="fill:#245073;" d="M497.15,342.004c-17.675,49.515-50.17,91.99-92.143,122.086
				c-41.973,30.096-93.423,47.814-149.008,47.814s-107.035-17.718-149.007-47.814S32.525,391.519,14.85,342.004H256H497.15z"/>
			<g id="XMLID_2190_">
				<path id="XMLID_2193_" style="fill:#088E5D;" d="M452.059,266.921l0.548-1.42l0.548-1.42
					c4.789-12.402,4.098-25.571-0.891-36.837c-4.989-11.266-14.276-20.629-26.678-25.418l0,0l0,0
					c-12.402-4.789-25.571-4.098-36.837,0.891s-20.629,14.276-25.418,26.678l-0.596,1.543l-0.596,1.543
					c-4.543,11.765-10.673,22.751-18.118,32.779c-7.445,10.028-16.207,19.097-26.013,27.027c-5.4,4.367-10.256,9.486-14.389,15.277
					c-4.133,5.792-7.543,12.256-10.053,19.315c-6.983,19.639-5.537,40.402,2.488,58.2c8.025,17.798,22.631,32.63,41.969,40.409
					c20.256,8.148,41.855,7.215,60.349-0.831c18.494-8.045,33.884-23.203,41.724-43.504c2.626-6.8,4.237-13.742,4.906-20.658
					c0.67-6.917,0.398-13.809-0.741-20.508c-2.088-12.283-2.383-24.738-1.034-37.028
					C444.578,290.669,447.571,278.544,452.059,266.921z"/>
				<path id="XMLID_2192_" style="fill:#89C527;" d="M433.014,372.899c-5.914,15.314-16.727,27.294-29.959,34.838
					c-13.232,7.544-28.883,10.652-44.473,8.224c-2.539-0.392-5.075-0.934-7.599-1.627s-5.036-1.539-7.527-2.539
					c-16.963-6.826-29.777-19.839-36.818-35.453c-7.041-15.614-8.309-33.829-2.181-51.057c2.201-6.193,5.193-11.866,8.819-16.947
					c3.626-5.082,7.886-9.573,12.622-13.404c8.605-6.957,16.29-14.914,22.822-23.712c6.531-8.798,11.908-18.438,15.894-28.76
					l0.523-1.355l0.523-1.355c2.101-5.441,5.205-10.197,9.019-14.14c3.814-3.943,8.34-7.073,13.284-9.263
					c4.94-2.187,10.298-3.433,15.782-3.606s11.093,0.726,16.534,2.827c2.393,0.924,4.655,2.043,6.774,3.332s4.094,2.747,5.911,4.35
					c6.456,5.674,10.97,13.164,13.052,21.358c2.082,8.193,1.73,17.089-1.547,25.575l-0.482,1.248l-0.482,1.248
					c-3.938,10.197-6.564,20.833-7.749,31.615s-0.926,21.709,0.905,32.488c1,5.877,1.24,11.924,0.653,17.992
					S435.317,366.935,433.014,372.899z"/>
				<path id="XMLID_2191_" style="fill:#A0E42E;" d="M433.014,372.899c-5.914,15.314-16.727,27.294-29.959,34.838
					c-13.232,7.544-28.883,10.652-44.473,8.224c-12.872-8.503-22.268-21.023-27.108-35.177c-4.84-14.154-5.125-29.941,0.225-44.979
					c2.201-6.193,5.193-11.866,8.819-16.947c3.626-5.082,7.886-9.573,12.622-13.404c8.605-6.957,16.29-14.914,22.822-23.712
					s11.908-18.438,15.894-28.76l0.523-1.355l0.523-1.355c2.101-5.441,5.205-10.197,9.019-14.14
					c3.814-3.943,8.34-7.073,13.284-9.263c2.766-1.225,5.663-2.154,8.64-2.764c2.977-0.61,6.034-0.902,9.12-0.852
					c6.456,5.674,10.97,13.164,13.052,21.358c2.082,8.193,1.73,17.089-1.547,25.575l-0.482,1.248l-0.482,1.248
					c-3.938,10.197-6.564,20.833-7.749,31.615s-0.926,21.709,0.905,32.488c1,5.877,1.24,11.924,0.653,17.992
					S435.317,366.935,433.014,372.899z"/>
			</g>
			<g id="XMLID_2144_">
				<path id="XMLID_2188_" style="fill:#088E5D;" d="M351.034,234.592v-1.619v-1.619c0-14.142-5.732-26.945-15-36.212
					c-9.268-9.268-22.07-15-36.212-15h0h0c-14.142,0-26.945,5.732-36.212,15c-9.268,9.268-15,22.071-15,36.212v1.76v1.76
					c0,13.415-1.872,26.665-5.418,39.469c-3.545,12.803-8.764,25.16-15.456,36.786c-3.685,6.403-6.542,13.342-8.424,20.673
					c-1.882,7.331-2.789,15.052-2.574,23.019c0.597,22.164,9.987,42.213,24.77,56.798s34.96,23.707,57.13,24.015
					c23.223,0.323,44.297-8.879,59.566-23.95c15.269-15.07,24.732-36.008,24.732-59.157c0-7.754-1.062-15.259-3.048-22.379
					c-1.986-7.12-4.896-13.855-8.594-20.066c-6.779-11.389-11.844-23.635-15.214-36.347
					C352.71,261.023,351.034,247.845,351.034,234.592z"/>
				<path id="XMLID_2187_" style="fill:#89C527;" d="M372.744,347.051c0,17.462-6.139,33.493-16.378,46.05
					c-10.239,12.556-24.579,21.638-40.979,25.202c-2.67,0.583-5.394,1.018-8.165,1.297s-5.587,0.403-8.442,0.365
					c-19.448-0.273-37.15-8.276-50.119-21.071c-12.97-12.796-21.208-30.384-21.728-49.828c-0.189-6.989,0.607-13.764,2.257-20.196
					c1.651-6.432,4.157-12.521,7.389-18.137c5.873-10.2,10.45-21.041,13.56-32.274c3.109-11.233,4.751-22.859,4.751-34.629v-1.545
					v-1.545c0-6.204,1.257-12.112,3.531-17.487c2.274-5.374,5.565-10.214,9.633-14.282c4.063-4.063,8.903-7.352,14.279-9.625
					s11.286-3.53,17.49-3.53c2.729,0,5.402,0.243,7.999,0.71c2.596,0.467,5.115,1.158,7.533,2.052
					c8.58,3.157,15.93,8.859,21.135,16.192c5.205,7.332,8.265,16.294,8.265,25.97v1.423v1.423c0,11.628,1.469,23.188,4.425,34.34
					c2.956,11.152,7.399,21.896,13.348,31.891c3.245,5.449,5.799,11.357,7.542,17.603
					C371.812,333.666,372.744,340.25,372.744,347.051z"/>
				<path id="XMLID_2186_" style="fill:#A0E42E;" d="M372.744,347.051c0,17.462-6.139,33.493-16.378,46.05
					c-10.239,12.556-24.579,21.638-40.979,25.202c-16.031-3.505-30.152-12.329-40.379-24.519
					c-10.227-12.19-16.559-27.747-17.012-44.718c-0.189-6.989,0.607-13.764,2.257-20.196c1.651-6.432,4.157-12.521,7.389-18.137
					c5.873-10.2,10.45-21.041,13.56-32.274c3.109-11.233,4.751-22.859,4.751-34.629v-1.545v-1.545
					c0-6.204,1.257-12.112,3.531-17.487c2.274-5.374,5.565-10.214,9.633-14.282c2.275-2.275,4.794-4.307,7.514-6.053
					c2.72-1.746,5.642-3.207,8.723-4.34c8.58,3.157,15.93,8.859,21.135,16.192c5.205,7.332,8.265,16.294,8.265,25.97v1.423v1.423
					c0,11.628,1.469,23.188,4.425,34.34c2.956,11.152,7.399,21.896,13.348,31.891c3.245,5.449,5.799,11.357,7.542,17.603
					C371.812,333.666,372.744,340.25,372.744,347.051z"/>
				<path id="XMLID_2146_" style="fill:#DA6106;" d="M341.673,338.101c0,9.285-3.024,17.863-8.141,24.804
					c-5.117,6.941-12.327,12.245-20.697,14.982c-2.048,0.672-4.166,1.188-6.34,1.536c-2.173,0.348-4.402,0.529-6.673,0.529
					c-11.556,0-22.019-4.685-29.593-12.258c-7.574-7.574-12.258-18.036-12.258-29.593c0-11.556,4.685-22.019,12.258-29.593
					c7.574-7.574,18.036-12.258,29.593-12.258c2.271,0,4.5,0.181,6.673,0.529c2.173,0.348,4.291,0.865,6.34,1.536
					c8.37,2.737,15.58,8.041,20.697,14.982C338.648,320.238,341.673,328.816,341.673,338.101z"/>
				<path id="XMLID_2145_" style="fill:#FC7701;" d="M341.673,338.101c0,9.285-3.024,17.863-8.141,24.804
					c-5.117,6.941-12.327,12.245-20.697,14.982c-8.37-2.737-15.58-8.041-20.697-14.982c-5.117-6.941-8.141-15.519-8.141-24.804
					s3.024-17.863,8.141-24.804s12.327-12.245,20.697-14.982c8.37,2.737,15.58,8.041,20.697,14.982
					C338.648,320.238,341.673,328.816,341.673,338.101z"/>
			</g>
			<g id="XMLID_1933_">
				<g id="XMLID_2141_">
					<path id="XMLID_2143_" style="fill:#95B2D4;" d="M198.333,112.105v31.255v31.255c0,8.907-3.612,16.973-9.449,22.811
						s-13.899,9.451-22.799,9.451h-37.436H91.212c-8.9,0-16.962-3.612-22.799-9.451s-9.449-13.904-9.449-22.811v-31.255v-31.255
						c0-8.907,3.612-16.973,9.449-22.811s13.899-9.451,22.799-9.451h-0.6h-0.6V64.492V49.14h38.637h38.637v15.351v15.351h-0.6h-0.6
						c8.9,0,16.962,3.612,22.799,9.451S198.333,103.198,198.333,112.105z"/>
					<path id="XMLID_2142_" style="fill:#95B2D4;" d="M198.333,245.913v72.175v72.175c0,8.907-3.612,16.969-9.449,22.804
						s-13.899,9.444-22.799,9.444h-37.436H91.212c-8.9,0-16.962-3.608-22.799-9.444s-9.449-13.897-9.449-22.804v-72.175v-72.175
						c0-8.907,3.612-16.973,9.449-22.811s13.899-9.451,22.799-9.451h37.436h37.436c8.9,0,16.962,3.612,22.799,9.451
						S198.333,237.006,198.333,245.913z"/>
				</g>
				<g id="XMLID_2138_">
					<path id="XMLID_2140_" style="fill:#A3C2EC;" d="M198.333,112.105v31.255v31.255c0,8.907-3.612,16.973-9.449,22.811
						s-13.899,9.451-22.799,9.451h-14.323h-14.323c-8.9,0-16.962-3.612-22.799-9.451s-9.449-13.904-9.449-22.811v-31.255v-31.255
						c0-8.907,3.612-16.973,9.449-22.811s13.899-9.451,22.799-9.451h-0.6h-0.6V64.492V49.14h15.524h15.524v15.351v15.351h-0.6h-0.6
						c8.9,0,16.962,3.612,22.799,9.451S198.333,103.198,198.333,112.105z"/>
					<path id="XMLID_2139_" style="fill:#A3C2EC;" d="M198.333,245.913v72.175v72.175c0,8.907-3.612,16.969-9.449,22.804
						s-13.899,9.444-22.799,9.444h-14.323h-14.323c-8.9,0-16.962-3.608-22.799-9.444s-9.449-13.897-9.449-22.804v-72.175v-72.175
						c0-8.907,3.612-16.973,9.449-22.811s13.899-9.451,22.799-9.451h14.323h14.323c8.9,0,16.962,3.612,22.799,9.451
						S198.333,237.006,198.333,245.913z"/>
				</g>
				<polygon id="XMLID_2136_" style="fill:#9AB8D9;" points="182.809,220.132 128.303,220.132 73.797,220.132 73.797,208.52 
					73.797,196.907 128.303,196.907 182.809,196.907 182.809,208.52 				"/>
				<path id="XMLID_2135_" style="fill:#259FE3;" d="M180.629,18.672v13.109V44.89c0,2.794-1.135,5.323-2.968,7.153
					s-4.366,2.962-7.16,2.962h-41.852H86.796c-2.794,0-5.326-1.132-7.16-2.962s-2.968-4.359-2.968-7.153V31.781V18.672
					c0-2.794,1.135-5.326,2.968-7.16s4.366-2.969,7.16-2.969h41.852H170.5c2.794,0,5.326,1.135,7.16,2.969
					S180.629,15.878,180.629,18.672z"/>
				<path id="XMLID_2134_" style="fill:#29A4FC;" d="M180.629,18.672v13.109V44.89c0,2.794-1.135,5.323-2.968,7.153
					s-4.366,2.962-7.16,2.962h-27.598h-27.598c-2.794,0-5.323-1.132-7.153-2.962c-1.83-1.83-2.962-4.359-2.962-7.153V31.781V18.672
					c0-2.794,1.132-5.326,2.962-7.16c1.83-1.834,4.359-2.969,7.153-2.969h27.598H170.5c2.794,0,5.326,1.135,7.16,2.969
					S180.629,15.878,180.629,18.672z"/>
				<polygon id="XMLID_2110_" style="fill:#D4D4D4;" points="198.333,249.57 198.333,304.075 198.333,358.581 128.648,358.581 
					58.964,358.581 58.964,304.075 58.964,249.57 128.648,249.57 				"/>
				<polygon id="XMLID_2109_" style="fill:#FFFFFF;" points="198.333,249.57 198.333,304.075 198.333,358.581 151.761,358.581 
					105.19,358.581 105.19,304.075 105.19,249.57 151.761,249.57 				"/>
				<g id="XMLID_1965_">
					<path id="XMLID_2108_" style="fill:#259FE3;" d="M160.386,310.742c0,6.113-1.987,11.764-5.352,16.338
						c-3.365,4.574-8.109,8.072-13.621,9.88c-1.359,0.448-2.763,0.793-4.203,1.026c-1.44,0.233-2.917,0.354-4.421,0.354
						c-7.624,0-14.523-3.091-19.517-8.086c-4.993-4.995-8.081-11.895-8.081-19.512c0-5.602,3.726-13.033,8.438-20.191
						s10.411-14.044,14.358-18.556c1.276-1.456,3.039-2.184,4.802-2.184s3.526,0.728,4.802,2.184
						c0.573,0.655,1.183,1.363,1.823,2.115c0.64,0.752,1.309,1.549,1.999,2.384c4.05,4.885,8.793,11.053,12.524,17.197
						S160.386,305.954,160.386,310.742z"/>
					<path id="XMLID_2056_" style="fill:#29A4FC;" d="M160.386,310.742c0,6.113-1.987,11.764-5.352,16.338
						c-3.365,4.574-8.109,8.072-13.621,9.88c-5.513-1.808-10.256-5.306-13.621-9.88c-3.365-4.574-5.352-10.225-5.352-16.338
						c0-4.788,2.715-10.908,6.444-17.052c3.729-6.144,8.473-12.312,12.529-17.197c4.05,4.885,8.793,11.053,12.524,17.197
						S160.386,305.954,160.386,310.742z"/>
				</g>
			</g>
		</g>
	</g>
</g>
</svg>
